<svg xmlns="http://www.w3.org/2000/svg" xmlns:xlink="http://www.w3.org/1999/xlink" width="275" zoomAndPan="magnify" viewBox="0 0 206.25 74.999997" height="100" preserveAspectRatio="xMidYMid meet" version="1.0"><defs><g/><clipPath id="a5a782a09f"><path d="M 0 17 L 7 17 L 7 74.863281 L 0 74.863281 Z M 0 17 " clip-rule="nonzero"/></clipPath><clipPath id="d7387e79a3"><path d="M 149 1 L 205.503906 1 L 205.503906 8 L 149 8 Z M 149 1 " clip-rule="nonzero"/></clipPath><clipPath id="adeb2f80a1"><path d="M 199 0.136719 L 205.503906 0.136719 L 205.503906 58 L 199 58 Z M 199 0.136719 " clip-rule="nonzero"/></clipPath></defs><g fill="#000000" fill-opacity="1"><g transform="translate(14.886176, 51.964927)"><g><path d="M 25.75 -10.3125 L 9.203125 -10.3125 C 9.203125 -8.71875 9.71875 -7.535156 10.75 -6.765625 C 11.789062 -5.992188 12.921875 -5.609375 14.140625 -5.609375 C 15.410156 -5.609375 16.414062 -5.773438 17.15625 -6.109375 C 17.90625 -6.453125 18.753906 -7.128906 19.703125 -8.140625 L 25.390625 -5.296875 C 23.015625 -1.316406 19.070312 0.671875 13.5625 0.671875 C 10.125 0.671875 7.171875 -0.503906 4.703125 -2.859375 C 2.242188 -5.222656 1.015625 -8.0625 1.015625 -11.375 C 1.015625 -14.695312 2.242188 -17.546875 4.703125 -19.921875 C 7.171875 -22.296875 10.125 -23.484375 13.5625 -23.484375 C 17.175781 -23.484375 20.117188 -22.4375 22.390625 -20.34375 C 24.660156 -18.25 25.796875 -15.265625 25.796875 -11.390625 C 25.796875 -10.847656 25.78125 -10.488281 25.75 -10.3125 Z M 9.421875 -14.671875 L 18.09375 -14.671875 C 17.914062 -15.859375 17.445312 -16.769531 16.6875 -17.40625 C 15.9375 -18.039062 14.96875 -18.359375 13.78125 -18.359375 C 12.476562 -18.359375 11.441406 -18.015625 10.671875 -17.328125 C 9.898438 -16.648438 9.484375 -15.765625 9.421875 -14.671875 Z M 9.421875 -14.671875 "/></g></g></g><g fill="#000000" fill-opacity="1"><g transform="translate(37.913273, 51.964927)"><g><path d="M 14.8125 -17.03125 C 13.320312 -17.03125 12.046875 -16.476562 10.984375 -15.375 C 9.921875 -14.28125 9.390625 -12.960938 9.390625 -11.421875 C 9.390625 -9.859375 9.921875 -8.523438 10.984375 -7.421875 C 12.046875 -6.328125 13.320312 -5.78125 14.8125 -5.78125 C 15.519531 -5.78125 16.191406 -5.867188 16.828125 -6.046875 C 17.460938 -6.222656 17.929688 -6.398438 18.234375 -6.578125 L 18.625 -6.84375 L 21.296875 -1.375 C 21.085938 -1.226562 20.796875 -1.039062 20.421875 -0.8125 C 20.054688 -0.59375 19.210938 -0.289062 17.890625 0.09375 C 16.578125 0.476562 15.164062 0.671875 13.65625 0.671875 C 10.300781 0.671875 7.351562 -0.503906 4.8125 -2.859375 C 2.28125 -5.222656 1.015625 -8.050781 1.015625 -11.34375 C 1.015625 -14.65625 2.28125 -17.503906 4.8125 -19.890625 C 7.351562 -22.285156 10.300781 -23.484375 13.65625 -23.484375 C 15.164062 -23.484375 16.554688 -23.300781 17.828125 -22.9375 C 19.109375 -22.582031 20.015625 -22.226562 20.546875 -21.875 L 21.296875 -21.34375 L 18.625 -15.96875 C 17.65625 -16.675781 16.382812 -17.03125 14.8125 -17.03125 Z M 14.8125 -17.03125 "/></g></g></g><g fill="#000000" fill-opacity="1"><g transform="translate(55.961303, 51.964927)"><g><path d="M 4.8125 -2.703125 C 2.28125 -4.960938 1.015625 -7.851562 1.015625 -11.375 C 1.015625 -14.90625 2.332031 -17.804688 4.96875 -20.078125 C 7.613281 -22.347656 10.878906 -23.484375 14.765625 -23.484375 C 18.585938 -23.484375 21.8125 -22.335938 24.4375 -20.046875 C 27.0625 -17.765625 28.375 -14.875 28.375 -11.375 C 28.375 -7.882812 27.085938 -5.003906 24.515625 -2.734375 C 21.953125 -0.460938 18.703125 0.671875 14.765625 0.671875 C 10.671875 0.671875 7.351562 -0.453125 4.8125 -2.703125 Z M 10.921875 -15.25 C 9.898438 -14.238281 9.390625 -12.945312 9.390625 -11.375 C 9.390625 -9.8125 9.875 -8.53125 10.84375 -7.53125 C 11.820312 -6.539062 13.113281 -6.046875 14.71875 -6.046875 C 16.257812 -6.046875 17.523438 -6.550781 18.515625 -7.5625 C 19.515625 -8.570312 20.015625 -9.847656 20.015625 -11.390625 C 20.015625 -12.953125 19.5 -14.238281 18.46875 -15.25 C 17.445312 -16.257812 16.195312 -16.765625 14.71875 -16.765625 C 13.207031 -16.765625 11.941406 -16.257812 10.921875 -15.25 Z M 10.921875 -15.25 "/></g></g></g><g fill="#000000" fill-opacity="1"><g transform="translate(81.56685, 51.964927)"><g><path d="M 14.8125 -17.03125 C 13.320312 -17.03125 12.046875 -16.476562 10.984375 -15.375 C 9.921875 -14.28125 9.390625 -12.960938 9.390625 -11.421875 C 9.390625 -9.859375 9.921875 -8.523438 10.984375 -7.421875 C 12.046875 -6.328125 13.320312 -5.78125 14.8125 -5.78125 C 15.519531 -5.78125 16.191406 -5.867188 16.828125 -6.046875 C 17.460938 -6.222656 17.929688 -6.398438 18.234375 -6.578125 L 18.625 -6.84375 L 21.296875 -1.375 C 21.085938 -1.226562 20.796875 -1.039062 20.421875 -0.8125 C 20.054688 -0.59375 19.210938 -0.289062 17.890625 0.09375 C 16.578125 0.476562 15.164062 0.671875 13.65625 0.671875 C 10.300781 0.671875 7.351562 -0.503906 4.8125 -2.859375 C 2.28125 -5.222656 1.015625 -8.050781 1.015625 -11.34375 C 1.015625 -14.65625 2.28125 -17.503906 4.8125 -19.890625 C 7.351562 -22.285156 10.300781 -23.484375 13.65625 -23.484375 C 15.164062 -23.484375 16.554688 -23.300781 17.828125 -22.9375 C 19.109375 -22.582031 20.015625 -22.226562 20.546875 -21.875 L 21.296875 -21.34375 L 18.625 -15.96875 C 17.65625 -16.675781 16.382812 -17.03125 14.8125 -17.03125 Z M 14.8125 -17.03125 "/></g></g></g><g fill="#000000" fill-opacity="1"><g transform="translate(99.614879, 51.964927)"><g><path d="M 2.671875 0 L 2.671875 -38.25 L 10.546875 -38.25 L 10.546875 -20.40625 L 10.625 -20.40625 C 12.675781 -22.457031 14.859375 -23.484375 17.171875 -23.484375 C 18.296875 -23.484375 19.410156 -23.332031 20.515625 -23.03125 C 21.628906 -22.738281 22.695312 -22.28125 23.71875 -21.65625 C 24.75 -21.03125 25.582031 -20.144531 26.21875 -19 C 26.851562 -17.863281 27.171875 -16.539062 27.171875 -15.03125 L 27.171875 0 L 19.296875 0 L 19.296875 -12.890625 C 19.296875 -14.078125 18.914062 -15.113281 18.15625 -16 C 17.40625 -16.894531 16.421875 -17.34375 15.203125 -17.34375 C 14.015625 -17.34375 12.941406 -16.878906 11.984375 -15.953125 C 11.023438 -15.035156 10.546875 -14.015625 10.546875 -12.890625 L 10.546875 0 Z M 2.671875 0 "/></g></g></g><g fill="#000000" fill-opacity="1"><g transform="translate(125.220426, 51.964927)"><g><path d="M 4.21875 -2.8125 C 2.082031 -5.144531 1.015625 -8 1.015625 -11.375 C 1.015625 -14.757812 2.082031 -17.625 4.21875 -19.96875 C 6.351562 -22.3125 9.066406 -23.484375 12.359375 -23.484375 C 15.378906 -23.484375 17.867188 -22.535156 19.828125 -20.640625 L 19.828125 -22.8125 L 27.703125 -22.8125 L 27.703125 0 L 19.921875 0 L 19.921875 -2.578125 L 19.828125 -2.578125 C 17.867188 -0.410156 15.378906 0.671875 12.359375 0.671875 C 9.066406 0.671875 6.351562 -0.488281 4.21875 -2.8125 Z M 10.921875 -15.25 C 9.898438 -14.238281 9.390625 -12.945312 9.390625 -11.375 C 9.390625 -9.8125 9.875 -8.53125 10.84375 -7.53125 C 11.820312 -6.539062 13.113281 -6.046875 14.71875 -6.046875 C 16.257812 -6.046875 17.523438 -6.550781 18.515625 -7.5625 C 19.515625 -8.570312 20.015625 -9.847656 20.015625 -11.390625 C 20.015625 -12.953125 19.5 -14.238281 18.46875 -15.25 C 17.445312 -16.257812 16.195312 -16.765625 14.71875 -16.765625 C 13.207031 -16.765625 11.941406 -16.257812 10.921875 -15.25 Z M 10.921875 -15.25 "/></g></g></g><g fill="#000000" fill-opacity="1"><g transform="translate(151.804005, 51.964927)"><g><path d="M 3.421875 -35.53125 C 4.335938 -36.445312 5.429688 -36.90625 6.703125 -36.90625 C 7.984375 -36.90625 9.082031 -36.445312 10 -35.53125 C 10.925781 -34.613281 11.390625 -33.515625 11.390625 -32.234375 C 11.390625 -30.960938 10.925781 -29.867188 10 -28.953125 C 9.082031 -28.035156 7.984375 -27.578125 6.703125 -27.578125 C 5.429688 -27.578125 4.335938 -28.035156 3.421875 -28.953125 C 2.503906 -29.867188 2.046875 -30.960938 2.046875 -32.234375 C 2.046875 -33.515625 2.503906 -34.613281 3.421875 -35.53125 Z M 2.671875 -22.8125 L 2.671875 0 L 10.546875 0 L 10.546875 -22.8125 Z M 2.671875 -22.8125 "/></g></g></g><g fill="#000000" fill-opacity="1"><g transform="translate(161.449857, 51.964927)"><g><path d="M 2.671875 0 L 2.671875 -22.8125 L 10.546875 -22.8125 L 10.546875 -20.40625 L 10.625 -20.40625 C 12.675781 -22.457031 14.859375 -23.484375 17.171875 -23.484375 C 18.296875 -23.484375 19.410156 -23.332031 20.515625 -23.03125 C 21.628906 -22.738281 22.695312 -22.28125 23.71875 -21.65625 C 24.75 -21.03125 25.582031 -20.144531 26.21875 -19 C 26.851562 -17.863281 27.171875 -16.539062 27.171875 -15.03125 L 27.171875 0 L 19.296875 0 L 19.296875 -12.890625 C 19.296875 -14.078125 18.914062 -15.113281 18.15625 -16 C 17.40625 -16.894531 16.421875 -17.34375 15.203125 -17.34375 C 14.015625 -17.34375 12.941406 -16.878906 11.984375 -15.953125 C 11.023438 -15.035156 10.546875 -14.015625 10.546875 -12.890625 L 10.546875 0 Z M 2.671875 0 "/></g></g></g><path stroke-linecap="butt" transform="matrix(0.622591, 0, 0, 0.622591, -0.000000000000017695, 67.44506)" fill="none" stroke-linejoin="miter" d="M 0.000000000000028422 5.000932 L 84.431734 5.000932 " stroke="#292929" stroke-width="10" stroke-opacity="1" stroke-miterlimit="4"/><g clip-path="url(#a5a782a09f)"><path stroke-linecap="butt" transform="matrix(0, 0.622591, -0.622591, 0, 6.222714, 20.465471)" fill="none" stroke-linejoin="miter" d="M -0.00100676 5.00062 L 82.460633 5.00062 " stroke="#292929" stroke-width="10" stroke-opacity="1" stroke-miterlimit="4"/></g><g clip-path="url(#d7387e79a3)"><path stroke-linecap="butt" transform="matrix(-0.622591, 0, 0, -0.622591, 205.495702, 7.554923)" fill="none" stroke-linejoin="miter" d="M -0.000628732 5.000906 L 84.431106 5.000906 " stroke="#292929" stroke-width="10" stroke-opacity="1" stroke-miterlimit="4"/></g><g clip-path="url(#adeb2f80a1)"><path stroke-linecap="butt" transform="matrix(0, -0.622591, 0.622591, 0, 199.273612, 54.534526)" fill="none" stroke-linejoin="miter" d="M -0.00101248 5.000246 L 82.460627 5.000246 " stroke="#292929" stroke-width="10" stroke-opacity="1" stroke-miterlimit="4"/></g></svg>